<svg viewBox="0 0 24 24" xml:space="preserve" xmlns="http://www.w3.org/2000/svg"><path d="M12 0C5.4 0 0 5.4 0 12s5.4 12 12 12 12-5.4 12-12S18.6 0 12 0zm0 22c-3.7 0-6.9-2-8.7-5h6.9c.3 1 1 1 1.7 1s1.4 0 1.7-1h6.9c-1.6 3-4.8 5-8.5 5zm-1-6c0-.6 0-1 1-9 1 8 1 8.4 1 9s-.4 1-1 1-1-.4-1-1zm10.2 0H14c0-1 0-4-2-12-2 8-2 11-2 12H2.8c-.5-1-.8-2-.8-4h1.5c.3 0 .5-.2.5-.5s-.2-.5-.5-.5H2.1c.1-1 .6-2.8 1.3-4l1.3.7c.2.1.5.1.7-.2.1-.2 0-.5-.3-.6l-1.2-.7C4.7 5 5.8 4.1 7 3.3l.7 1.3c.2.3.5.4.7.2.2-.1.3-.4.2-.7l-.7-1.2C9.1 2.3 10.5 2 12 2s2.9.3 4.1.9l-.7 1.2c-.1.2-.1.5.2.7s.5.1.7-.2l.7-1.3c1.2.7 2.3 1.7 3.1 2.8l-1.2.7c-.2.1-.3.4-.2.7.1.2.4.3.7.2l1.3-.7c.7 1.2 1.2 3 1.3 4h-1.4c-.3 0-.5.2-.5.5s.2.5.5.5H22c0 2-.3 3-.8 4z" fill="#5151b1" class="fill-000000"></path></svg>